%TF.GenerationSoftware,KiCad,Pcbnew,8.0.6*%
%TF.CreationDate,2024-11-18T16:16:28-05:00*%
%TF.ProjectId,SolarFlarePCB,536f6c61-7246-46c6-9172-655043422e6b,rev?*%
%TF.SameCoordinates,Original*%
%TF.FileFunction,Soldermask,Bot*%
%TF.FilePolarity,Negative*%
%FSLAX46Y46*%
G04 Gerber Fmt 4.6, Leading zero omitted, Abs format (unit mm)*
G04 Created by KiCad (PCBNEW 8.0.6) date 2024-11-18 16:16:28*
%MOMM*%
%LPD*%
G01*
G04 APERTURE LIST*
G04 Aperture macros list*
%AMRoundRect*
0 Rectangle with rounded corners*
0 $1 Rounding radius*
0 $2 $3 $4 $5 $6 $7 $8 $9 X,Y pos of 4 corners*
0 Add a 4 corners polygon primitive as box body*
4,1,4,$2,$3,$4,$5,$6,$7,$8,$9,$2,$3,0*
0 Add four circle primitives for the rounded corners*
1,1,$1+$1,$2,$3*
1,1,$1+$1,$4,$5*
1,1,$1+$1,$6,$7*
1,1,$1+$1,$8,$9*
0 Add four rect primitives between the rounded corners*
20,1,$1+$1,$2,$3,$4,$5,0*
20,1,$1+$1,$4,$5,$6,$7,0*
20,1,$1+$1,$6,$7,$8,$9,0*
20,1,$1+$1,$8,$9,$2,$3,0*%
%AMRotRect*
0 Rectangle, with rotation*
0 The origin of the aperture is its center*
0 $1 length*
0 $2 width*
0 $3 Rotation angle, in degrees counterclockwise*
0 Add horizontal line*
21,1,$1,$2,0,0,$3*%
G04 Aperture macros list end*
%ADD10C,1.651000*%
%ADD11R,1.651000X1.651000*%
%ADD12C,1.701800*%
%ADD13C,3.000000*%
%ADD14C,3.987800*%
%ADD15R,2.550000X2.500000*%
%ADD16RotRect,2.550000X2.500000X330.000000*%
%ADD17C,0.800000*%
%ADD18RotRect,1.651000X1.651000X175.000000*%
%ADD19RotRect,2.550000X2.500000X355.000000*%
%ADD20RotRect,1.651000X1.651000X150.000000*%
%ADD21R,1.200000X2.500000*%
%ADD22RoundRect,0.500000X0.875000X0.500000X-0.875000X0.500000X-0.875000X-0.500000X0.875000X-0.500000X0*%
G04 APERTURE END LIST*
D10*
%TO.C,D3*%
X41910000Y-104775000D03*
D11*
X34290000Y-104775000D03*
%TD*%
D12*
%TO.C,MX3*%
X33020000Y-95250000D03*
D13*
X34290000Y-92710000D03*
X34290000Y-97790000D03*
D14*
X38100000Y-95250000D03*
D13*
X40640000Y-90170000D03*
X40640000Y-100330000D03*
D12*
X43180000Y-95250000D03*
D15*
X44390000Y-90170000D03*
X30540000Y-92710000D03*
%TD*%
D10*
%TO.C,D4*%
X60960000Y-57150000D03*
D11*
X53340000Y-57150000D03*
%TD*%
D12*
%TO.C,MX7*%
X71120000Y-38258750D03*
D13*
X72390000Y-35718750D03*
X72390000Y-40798750D03*
D14*
X76200000Y-38258750D03*
D13*
X78740000Y-33178750D03*
X78740000Y-43338750D03*
D12*
X81280000Y-38258750D03*
D15*
X82490000Y-33178750D03*
X68640000Y-35718750D03*
%TD*%
D12*
%TO.C,MX18*%
X127350591Y-108595000D03*
D13*
X129720444Y-107030295D03*
X127180443Y-111429705D03*
D14*
X131750000Y-111135000D03*
D13*
X136489705Y-108005591D03*
X131409705Y-116804409D03*
D12*
X136149409Y-113675000D03*
D16*
X139737300Y-109880591D03*
X126472848Y-105155295D03*
%TD*%
D12*
%TO.C,MX13*%
X90170000Y-85725000D03*
D13*
X91440000Y-83185000D03*
X91440000Y-88265000D03*
D14*
X95250000Y-85725000D03*
D13*
X97790000Y-80645000D03*
X97790000Y-90805000D03*
D12*
X100330000Y-85725000D03*
D15*
X101540000Y-80645000D03*
X87690000Y-83185000D03*
%TD*%
D12*
%TO.C,MX9*%
X71120000Y-76200000D03*
D13*
X72390000Y-73660000D03*
X72390000Y-78740000D03*
D14*
X76200000Y-76200000D03*
D13*
X78740000Y-71120000D03*
X78740000Y-81280000D03*
D12*
X81280000Y-76200000D03*
D15*
X82490000Y-71120000D03*
X68640000Y-73660000D03*
%TD*%
D12*
%TO.C,MX2*%
X33020000Y-76200000D03*
D13*
X34290000Y-73660000D03*
X34290000Y-78740000D03*
D14*
X38100000Y-76200000D03*
D13*
X40640000Y-71120000D03*
X40640000Y-81280000D03*
D12*
X43180000Y-76200000D03*
D15*
X44390000Y-71120000D03*
X30540000Y-73660000D03*
%TD*%
D12*
%TO.C,MX8*%
X71120000Y-57150000D03*
D13*
X72390000Y-54610000D03*
X72390000Y-59690000D03*
D14*
X76200000Y-57150000D03*
D13*
X78740000Y-52070000D03*
X78740000Y-62230000D03*
D12*
X81280000Y-57150000D03*
D15*
X82490000Y-52070000D03*
X68640000Y-54610000D03*
%TD*%
D10*
%TO.C,D11*%
X99060000Y-57150000D03*
D11*
X91440000Y-57150000D03*
%TD*%
D12*
%TO.C,MX17*%
X109220000Y-85725000D03*
D13*
X110490000Y-83185000D03*
X110490000Y-88265000D03*
D14*
X114300000Y-85725000D03*
D13*
X116840000Y-80645000D03*
X116840000Y-90805000D03*
D12*
X119380000Y-85725000D03*
D15*
X120590000Y-80645000D03*
X106740000Y-83185000D03*
%TD*%
D12*
%TO.C,MX16*%
X109220000Y-66675000D03*
D13*
X110490000Y-64135000D03*
X110490000Y-69215000D03*
D14*
X114300000Y-66675000D03*
D13*
X116840000Y-61595000D03*
X116840000Y-71755000D03*
D12*
X119380000Y-66675000D03*
D15*
X120590000Y-61595000D03*
X106740000Y-64135000D03*
%TD*%
D12*
%TO.C,MX5*%
X52070000Y-66675000D03*
D13*
X53340000Y-64135000D03*
X53340000Y-69215000D03*
D14*
X57150000Y-66675000D03*
D13*
X59690000Y-61595000D03*
X59690000Y-71755000D03*
D12*
X62230000Y-66675000D03*
D15*
X63440000Y-61595000D03*
X49590000Y-64135000D03*
%TD*%
D10*
%TO.C,D1*%
X41910000Y-66675000D03*
D11*
X34290000Y-66675000D03*
%TD*%
D10*
%TO.C,D15*%
X118110000Y-57150000D03*
D11*
X110490000Y-57150000D03*
%TD*%
D12*
%TO.C,MX10*%
X83170000Y-109625000D03*
D13*
X84440000Y-107085000D03*
X84440000Y-112165000D03*
D14*
X88250000Y-109625000D03*
D13*
X90790000Y-104545000D03*
X90790000Y-114705000D03*
D12*
X93330000Y-109625000D03*
D15*
X94540000Y-104545000D03*
X80690000Y-107085000D03*
%TD*%
D12*
%TO.C,MX15*%
X109220000Y-47625000D03*
D13*
X110490000Y-45085000D03*
X110490000Y-50165000D03*
D14*
X114300000Y-47625000D03*
D13*
X116840000Y-42545000D03*
X116840000Y-52705000D03*
D12*
X119380000Y-47625000D03*
D15*
X120590000Y-42545000D03*
X106740000Y-45085000D03*
%TD*%
D10*
%TO.C,D7*%
X80010000Y-47625000D03*
D11*
X72390000Y-47625000D03*
%TD*%
D10*
%TO.C,D12*%
X99060000Y-76200000D03*
D11*
X91440000Y-76200000D03*
%TD*%
D12*
%TO.C,MX11*%
X90170000Y-47625000D03*
D13*
X91440000Y-45085000D03*
X91440000Y-50165000D03*
D14*
X95250000Y-47625000D03*
D13*
X97790000Y-42545000D03*
X97790000Y-52705000D03*
D12*
X100330000Y-47625000D03*
D15*
X101540000Y-42545000D03*
X87690000Y-45085000D03*
%TD*%
D10*
%TO.C,D13*%
X99060000Y-95250000D03*
D11*
X91440000Y-95250000D03*
%TD*%
D17*
%TO.C,U3*%
X142450000Y-65850000D03*
X135450000Y-65850000D03*
%TD*%
D10*
%TO.C,D14*%
X113333002Y-100344564D03*
D18*
X105741998Y-99680436D03*
%TD*%
D12*
%TO.C,MX1*%
X33020000Y-57150000D03*
D13*
X34290000Y-54610000D03*
X34290000Y-59690000D03*
D14*
X38100000Y-57150000D03*
D13*
X40640000Y-52070000D03*
X40640000Y-62230000D03*
D12*
X43180000Y-57150000D03*
D15*
X44390000Y-52070000D03*
X30540000Y-54610000D03*
%TD*%
D12*
%TO.C,MX4*%
X52070000Y-47625000D03*
D13*
X53340000Y-45085000D03*
X53340000Y-50165000D03*
D14*
X57150000Y-47625000D03*
D13*
X59690000Y-42545000D03*
X59690000Y-52705000D03*
D12*
X62230000Y-47625000D03*
D15*
X63440000Y-42545000D03*
X49590000Y-45085000D03*
%TD*%
D10*
%TO.C,D6*%
X60960000Y-95250000D03*
D11*
X53340000Y-95250000D03*
%TD*%
D12*
%TO.C,MX14*%
X103339331Y-109982249D03*
D13*
X104825874Y-107562602D03*
X104383123Y-112623271D03*
D14*
X108400000Y-110425000D03*
D13*
X111373086Y-105585707D03*
X110487583Y-115707045D03*
D12*
X113460669Y-110867751D03*
D19*
X115108816Y-105912541D03*
X101090144Y-107235768D03*
%TD*%
D10*
%TO.C,D2*%
X41910000Y-85725000D03*
D11*
X34290000Y-85725000D03*
%TD*%
D12*
%TO.C,MX6*%
X52070000Y-85725000D03*
D13*
X53340000Y-83185000D03*
X53340000Y-88265000D03*
D14*
X57150000Y-85725000D03*
D13*
X59690000Y-80645000D03*
X59690000Y-90805000D03*
D12*
X62230000Y-85725000D03*
D15*
X63440000Y-80645000D03*
X49590000Y-83185000D03*
%TD*%
D10*
%TO.C,D18*%
X139030807Y-104298750D03*
D20*
X132431693Y-100488750D03*
%TD*%
D10*
%TO.C,D10*%
X91916250Y-100012500D03*
D11*
X84296250Y-100012500D03*
%TD*%
D12*
%TO.C,MX12*%
X90170000Y-66675000D03*
D13*
X91440000Y-64135000D03*
X91440000Y-69215000D03*
D14*
X95250000Y-66675000D03*
D13*
X97790000Y-61595000D03*
X97790000Y-71755000D03*
D12*
X100330000Y-66675000D03*
D15*
X101540000Y-61595000D03*
X87690000Y-64135000D03*
%TD*%
D10*
%TO.C,D9*%
X80010000Y-85725000D03*
D11*
X72390000Y-85725000D03*
%TD*%
D10*
%TO.C,D16*%
X118110000Y-76200000D03*
D11*
X110490000Y-76200000D03*
%TD*%
D10*
%TO.C,D8*%
X80010000Y-66675000D03*
D11*
X72390000Y-66675000D03*
%TD*%
D10*
%TO.C,D5*%
X60960000Y-76200000D03*
D11*
X53340000Y-76200000D03*
%TD*%
D10*
%TO.C,D17*%
X118110000Y-95250000D03*
D11*
X110490000Y-95250000D03*
%TD*%
D17*
%TO.C,U2*%
X135450000Y-65850000D03*
X142450000Y-65850000D03*
D21*
X132750000Y-69100000D03*
X133850000Y-62600000D03*
X137850000Y-62600000D03*
X140850000Y-62600000D03*
%TD*%
D22*
%TO.C,U4*%
X144215000Y-42291250D03*
X144215000Y-44831250D03*
X144215000Y-47371250D03*
X144215000Y-49911250D03*
X144215000Y-52451250D03*
X144215000Y-54991250D03*
X144215000Y-57531250D03*
X128050000Y-57531250D03*
X128050000Y-54991250D03*
X128050000Y-52451250D03*
X128050000Y-49911250D03*
X128050000Y-47371250D03*
X128050000Y-44831250D03*
X128050000Y-42291250D03*
%TD*%
M02*
