%TF.GenerationSoftware,KiCad,Pcbnew,8.0.6*%
%TF.CreationDate,2024-11-18T16:16:28-05:00*%
%TF.ProjectId,SolarFlarePCB,536f6c61-7246-46c6-9172-655043422e6b,rev?*%
%TF.SameCoordinates,Original*%
%TF.FileFunction,Paste,Bot*%
%TF.FilePolarity,Positive*%
%FSLAX46Y46*%
G04 Gerber Fmt 4.6, Leading zero omitted, Abs format (unit mm)*
G04 Created by KiCad (PCBNEW 8.0.6) date 2024-11-18 16:16:28*
%MOMM*%
%LPD*%
G01*
G04 APERTURE LIST*
G04 Aperture macros list*
%AMRoundRect*
0 Rectangle with rounded corners*
0 $1 Rounding radius*
0 $2 $3 $4 $5 $6 $7 $8 $9 X,Y pos of 4 corners*
0 Add a 4 corners polygon primitive as box body*
4,1,4,$2,$3,$4,$5,$6,$7,$8,$9,$2,$3,0*
0 Add four circle primitives for the rounded corners*
1,1,$1+$1,$2,$3*
1,1,$1+$1,$4,$5*
1,1,$1+$1,$6,$7*
1,1,$1+$1,$8,$9*
0 Add four rect primitives between the rounded corners*
20,1,$1+$1,$2,$3,$4,$5,0*
20,1,$1+$1,$4,$5,$6,$7,0*
20,1,$1+$1,$6,$7,$8,$9,0*
20,1,$1+$1,$8,$9,$2,$3,0*%
%AMRotRect*
0 Rectangle, with rotation*
0 The origin of the aperture is its center*
0 $1 length*
0 $2 width*
0 $3 Rotation angle, in degrees counterclockwise*
0 Add horizontal line*
21,1,$1,$2,0,0,$3*%
G04 Aperture macros list end*
%ADD10R,2.550000X2.500000*%
%ADD11RotRect,2.550000X2.500000X330.000000*%
%ADD12RotRect,2.550000X2.500000X355.000000*%
%ADD13R,1.200000X2.500000*%
%ADD14RoundRect,0.500000X0.875000X0.500000X-0.875000X0.500000X-0.875000X-0.500000X0.875000X-0.500000X0*%
G04 APERTURE END LIST*
D10*
%TO.C,MX3*%
X44390000Y-90170000D03*
X30540000Y-92710000D03*
%TD*%
%TO.C,MX7*%
X82490000Y-33178750D03*
X68640000Y-35718750D03*
%TD*%
D11*
%TO.C,MX18*%
X139737300Y-109880591D03*
X126472848Y-105155295D03*
%TD*%
D10*
%TO.C,MX13*%
X101540000Y-80645000D03*
X87690000Y-83185000D03*
%TD*%
%TO.C,MX9*%
X82490000Y-71120000D03*
X68640000Y-73660000D03*
%TD*%
%TO.C,MX2*%
X44390000Y-71120000D03*
X30540000Y-73660000D03*
%TD*%
%TO.C,MX8*%
X82490000Y-52070000D03*
X68640000Y-54610000D03*
%TD*%
%TO.C,MX17*%
X120590000Y-80645000D03*
X106740000Y-83185000D03*
%TD*%
%TO.C,MX16*%
X120590000Y-61595000D03*
X106740000Y-64135000D03*
%TD*%
%TO.C,MX5*%
X63440000Y-61595000D03*
X49590000Y-64135000D03*
%TD*%
%TO.C,MX10*%
X94540000Y-104545000D03*
X80690000Y-107085000D03*
%TD*%
%TO.C,MX15*%
X120590000Y-42545000D03*
X106740000Y-45085000D03*
%TD*%
%TO.C,MX11*%
X101540000Y-42545000D03*
X87690000Y-45085000D03*
%TD*%
%TO.C,MX1*%
X44390000Y-52070000D03*
X30540000Y-54610000D03*
%TD*%
%TO.C,MX4*%
X63440000Y-42545000D03*
X49590000Y-45085000D03*
%TD*%
D12*
%TO.C,MX14*%
X115108816Y-105912541D03*
X101090144Y-107235768D03*
%TD*%
D10*
%TO.C,MX6*%
X63440000Y-80645000D03*
X49590000Y-83185000D03*
%TD*%
%TO.C,MX12*%
X101540000Y-61595000D03*
X87690000Y-64135000D03*
%TD*%
D13*
%TO.C,U2*%
X132750000Y-69100000D03*
X133850000Y-62600000D03*
X137850000Y-62600000D03*
X140850000Y-62600000D03*
%TD*%
D14*
%TO.C,U4*%
X144215000Y-42291250D03*
X144215000Y-44831250D03*
X144215000Y-47371250D03*
X144215000Y-49911250D03*
X144215000Y-52451250D03*
X144215000Y-54991250D03*
X144215000Y-57531250D03*
X128050000Y-57531250D03*
X128050000Y-54991250D03*
X128050000Y-52451250D03*
X128050000Y-49911250D03*
X128050000Y-47371250D03*
X128050000Y-44831250D03*
X128050000Y-42291250D03*
%TD*%
M02*
