M48
; DRILL file {KiCad 8.0.6} date 2024-11-18T16:16:12-0500
; FORMAT={-:-/ absolute / inch / decimal}
; #@! TF.CreationDate,2024-11-18T16:16:12-05:00
; #@! TF.GenerationSoftware,Kicad,Pcbnew,8.0.6
; #@! TF.FileFunction,Plated,1,2,PTH
FMAT,2
INCH
; #@! TA.AperFunction,Plated,PTH,ViaDrill
T1C0.0118
; #@! TA.AperFunction,Plated,PTH,ComponentDrill
T2C0.0390
%
G90
G05
T1
X1.2024Y-2.15
X1.2024Y-2.9
X1.2024Y-3.65
X1.7476Y-2.05
X1.7476Y-2.45
X1.7476Y-3.2
X1.7476Y-3.95
X1.9524Y-1.775
X1.9524Y-2.525
X1.9524Y-3.275
X2.4976Y-1.675
X2.4976Y-2.075
X2.4976Y-2.825
X2.4976Y-3.575
X2.7024Y-1.4062
X2.7024Y-2.15
X2.7024Y-2.9
X3.1768Y-4.2159
X3.2476Y-1.7063
X3.2476Y-2.45
X3.2476Y-3.2
X3.4524Y-1.775
X3.4524Y-2.525
X3.4524Y-3.275
X3.722Y-4.5159
X3.9799Y-4.2219
X3.9976Y-1.675
X3.9976Y-2.075
X3.9976Y-2.825
X3.9976Y-3.575
X4.2024Y-1.775
X4.2024Y-2.525
X4.2024Y-3.275
X4.497Y-4.5683
X4.7476Y-2.075
X4.7476Y-2.825
X4.7476Y-3.575
X4.7795Y-3.0
X4.8248Y-3.6161
X4.8563Y-3.6181
X4.9792Y-4.14
X5.2264Y-2.7205
X5.2697Y-2.4646
X5.3015Y-4.6724
X5.4272Y-2.4646
X5.5453Y-2.4646
X5.5881Y-1.6654
X5.5881Y-1.7343
X5.5881Y-1.7657
X5.5881Y-1.8642
X5.5881Y-1.9331
X5.5881Y-1.9646
X5.5881Y-2.065
X5.5881Y-2.1634
X5.5881Y-2.2343
X5.5881Y-2.2657
X5.5884Y-1.8327
X5.5885Y-2.1319
X5.5887Y-2.0335
T2
X1.35Y-2.625
X1.35Y-3.375
X1.35Y-4.125
X1.65Y-2.625
X1.65Y-3.375
X1.65Y-4.125
X2.1Y-2.25
X2.1Y-3.0
X2.1Y-3.75
X2.4Y-2.25
X2.4Y-3.0
X2.4Y-3.75
X2.85Y-1.875
X2.85Y-2.625
X2.85Y-3.375
X3.15Y-1.875
X3.15Y-2.625
X3.15Y-3.375
X3.3188Y-3.9375
X3.6Y-2.25
X3.6Y-3.0
X3.6Y-3.75
X3.6187Y-3.9375
X3.9Y-2.25
X3.9Y-3.0
X3.9Y-3.75
X4.1631Y-3.9244
X4.35Y-2.25
X4.35Y-3.0
X4.35Y-3.75
X4.4619Y-3.9506
X4.65Y-2.25
X4.65Y-3.0
X4.65Y-3.75
X5.2138Y-3.9562
X5.4737Y-4.1063
M30
