M48
; DRILL file {KiCad 8.0.6} date 2024-11-18T16:16:12-0500
; FORMAT={-:-/ absolute / inch / decimal}
; #@! TF.CreationDate,2024-11-18T16:16:12-05:00
; #@! TF.GenerationSoftware,Kicad,Pcbnew,8.0.6
; #@! TF.FileFunction,NonPlated,1,2,NPTH
FMAT,2
INCH
; #@! TA.AperFunction,NonPlated,NPTH,ComponentDrill
T1C0.0315
; #@! TA.AperFunction,NonPlated,NPTH,ComponentDrill
T2C0.0670
; #@! TA.AperFunction,NonPlated,NPTH,ComponentDrill
T3C0.1181
; #@! TA.AperFunction,NonPlated,NPTH,ComponentDrill
T4C0.1570
%
G90
G05
T1
X5.3327Y-2.5925
X5.3327Y-2.5925
X5.6083Y-2.5925
X5.6083Y-2.5925
T2
X1.3Y-2.25
X1.3Y-3.0
X1.3Y-3.75
X1.7Y-2.25
X1.7Y-3.0
X1.7Y-3.75
X2.05Y-1.875
X2.05Y-2.625
X2.05Y-3.375
X2.45Y-1.875
X2.45Y-2.625
X2.45Y-3.375
X2.8Y-1.5062
X2.8Y-2.25
X2.8Y-3.0
X3.2Y-1.5062
X3.2Y-2.25
X3.2Y-3.0
X3.2744Y-4.3159
X3.55Y-1.875
X3.55Y-2.625
X3.55Y-3.375
X3.6744Y-4.3159
X3.95Y-1.875
X3.95Y-2.625
X3.95Y-3.375
X4.0685Y-4.33
X4.3Y-1.875
X4.3Y-2.625
X4.3Y-3.375
X4.467Y-4.3649
X4.7Y-1.875
X4.7Y-2.625
X4.7Y-3.375
X5.0138Y-4.2754
X5.3602Y-4.4754
T3
X1.35Y-2.15
X1.35Y-2.35
X1.35Y-2.9
X1.35Y-3.1
X1.35Y-3.65
X1.35Y-3.85
X1.6Y-2.05
X1.6Y-2.45
X1.6Y-2.8
X1.6Y-3.2
X1.6Y-3.55
X1.6Y-3.95
X2.1Y-1.775
X2.1Y-1.975
X2.1Y-2.525
X2.1Y-2.725
X2.1Y-3.275
X2.1Y-3.475
X2.35Y-1.675
X2.35Y-2.075
X2.35Y-2.425
X2.35Y-2.825
X2.35Y-3.175
X2.35Y-3.575
X2.85Y-1.4062
X2.85Y-1.6062
X2.85Y-2.15
X2.85Y-2.35
X2.85Y-2.9
X2.85Y-3.1
X3.1Y-1.3062
X3.1Y-1.7063
X3.1Y-2.05
X3.1Y-2.45
X3.1Y-2.8
X3.1Y-3.2
X3.3244Y-4.2159
X3.3244Y-4.4159
X3.5744Y-4.1159
X3.5744Y-4.5159
X3.6Y-1.775
X3.6Y-1.975
X3.6Y-2.525
X3.6Y-2.725
X3.6Y-3.275
X3.6Y-3.475
X3.85Y-1.675
X3.85Y-2.075
X3.85Y-2.425
X3.85Y-2.825
X3.85Y-3.175
X3.85Y-3.575
X4.1096Y-4.434
X4.127Y-4.2347
X4.3499Y-4.5554
X4.35Y-1.775
X4.35Y-1.975
X4.35Y-2.525
X4.35Y-2.725
X4.35Y-3.275
X4.35Y-3.475
X4.3848Y-4.1569
X4.6Y-1.675
X4.6Y-2.075
X4.6Y-2.425
X4.6Y-2.825
X4.6Y-3.175
X4.6Y-3.575
X5.0071Y-4.387
X5.1071Y-4.2138
X5.1736Y-4.5986
X5.3736Y-4.2522
T4
X1.5Y-2.25
X1.5Y-3.0
X1.5Y-3.75
X2.25Y-1.875
X2.25Y-2.625
X2.25Y-3.375
X3.0Y-1.5062
X3.0Y-2.25
X3.0Y-3.0
X3.4744Y-4.3159
X3.75Y-1.875
X3.75Y-2.625
X3.75Y-3.375
X4.2677Y-4.3474
X4.5Y-1.875
X4.5Y-2.625
X4.5Y-3.375
X5.187Y-4.3754
M30
