%TF.GenerationSoftware,KiCad,Pcbnew,8.0.6*%
%TF.CreationDate,2024-11-18T16:16:28-05:00*%
%TF.ProjectId,SolarFlarePCB,536f6c61-7246-46c6-9172-655043422e6b,rev?*%
%TF.SameCoordinates,Original*%
%TF.FileFunction,Paste,Top*%
%TF.FilePolarity,Positive*%
%FSLAX46Y46*%
G04 Gerber Fmt 4.6, Leading zero omitted, Abs format (unit mm)*
G04 Created by KiCad (PCBNEW 8.0.6) date 2024-11-18 16:16:28*
%MOMM*%
%LPD*%
G01*
G04 APERTURE LIST*
G04 Aperture macros list*
%AMRoundRect*
0 Rectangle with rounded corners*
0 $1 Rounding radius*
0 $2 $3 $4 $5 $6 $7 $8 $9 X,Y pos of 4 corners*
0 Add a 4 corners polygon primitive as box body*
4,1,4,$2,$3,$4,$5,$6,$7,$8,$9,$2,$3,0*
0 Add four circle primitives for the rounded corners*
1,1,$1+$1,$2,$3*
1,1,$1+$1,$4,$5*
1,1,$1+$1,$6,$7*
1,1,$1+$1,$8,$9*
0 Add four rect primitives between the rounded corners*
20,1,$1+$1,$2,$3,$4,$5,0*
20,1,$1+$1,$4,$5,$6,$7,0*
20,1,$1+$1,$6,$7,$8,$9,0*
20,1,$1+$1,$8,$9,$2,$3,0*%
%AMRotRect*
0 Rectangle, with rotation*
0 The origin of the aperture is its center*
0 $1 length*
0 $2 width*
0 $3 Rotation angle, in degrees counterclockwise*
0 Add horizontal line*
21,1,$1,$2,0,0,$3*%
G04 Aperture macros list end*
%ADD10R,2.550000X2.500000*%
%ADD11RotRect,2.550000X2.500000X330.000000*%
%ADD12RoundRect,0.500000X-0.875000X-0.500000X0.875000X-0.500000X0.875000X0.500000X-0.875000X0.500000X0*%
%ADD13R,1.200000X2.500000*%
%ADD14RotRect,2.550000X2.500000X355.000000*%
G04 APERTURE END LIST*
D10*
%TO.C,MX3*%
X44390000Y-100330000D03*
X30540000Y-97790000D03*
%TD*%
%TO.C,MX7*%
X82490000Y-43338750D03*
X68640000Y-40798750D03*
%TD*%
D11*
%TO.C,MX18*%
X134657300Y-118679409D03*
X123932848Y-109554705D03*
%TD*%
D10*
%TO.C,MX13*%
X101540000Y-90805000D03*
X87690000Y-88265000D03*
%TD*%
%TO.C,MX9*%
X82490000Y-81280000D03*
X68640000Y-78740000D03*
%TD*%
%TO.C,MX2*%
X44390000Y-81280000D03*
X30540000Y-78740000D03*
%TD*%
%TO.C,MX8*%
X82490000Y-62230000D03*
X68640000Y-59690000D03*
%TD*%
%TO.C,MX17*%
X120590000Y-90805000D03*
X106740000Y-88265000D03*
%TD*%
%TO.C,MX16*%
X120590000Y-71755000D03*
X106740000Y-69215000D03*
%TD*%
%TO.C,MX5*%
X63440000Y-71755000D03*
X49590000Y-69215000D03*
%TD*%
%TO.C,MX10*%
X94540000Y-114705000D03*
X80690000Y-112165000D03*
%TD*%
%TO.C,MX15*%
X120590000Y-52705000D03*
X106740000Y-50165000D03*
%TD*%
D12*
%TO.C,U1*%
X128050000Y-42291250D03*
X128050000Y-44831250D03*
X128050000Y-47371250D03*
X128050000Y-49911250D03*
X128050000Y-52451250D03*
X128050000Y-54991250D03*
X128050000Y-57531250D03*
X144215000Y-57531250D03*
X144215000Y-54991250D03*
X144215000Y-52451250D03*
X144215000Y-49911250D03*
X144215000Y-47371250D03*
X144215000Y-44831250D03*
X144215000Y-42291250D03*
%TD*%
D10*
%TO.C,MX11*%
X101540000Y-52705000D03*
X87690000Y-50165000D03*
%TD*%
D13*
%TO.C,U3*%
X132750000Y-62600000D03*
X133850000Y-69100000D03*
X137850000Y-69100000D03*
X140850000Y-69100000D03*
%TD*%
D10*
%TO.C,MX1*%
X44390000Y-62230000D03*
X30540000Y-59690000D03*
%TD*%
%TO.C,MX4*%
X63440000Y-52705000D03*
X49590000Y-50165000D03*
%TD*%
D14*
%TO.C,MX14*%
X114223313Y-116033879D03*
X100647391Y-112296437D03*
%TD*%
D10*
%TO.C,MX6*%
X63440000Y-90805000D03*
X49590000Y-88265000D03*
%TD*%
%TO.C,MX12*%
X101540000Y-71755000D03*
X87690000Y-69215000D03*
%TD*%
M02*
